# xmcd CD database file
#
# Track frame offsets:
#	150
#	21184
#	43060
#	68789
#	90526
#	101710
#	133262
#	146692
#	171285
#	193210
#	215821
#	236548
#	251713
#	273474
#	293504
#	321155
#
# Disc length: 4526 seconds
#
# Revision: 0
# Processed by: cddbd v1.4PL0 Copyright (c) Steve Scherf et al.
# Submitted via: CDex 1.51
#
DISCID=fc11ac10
DTITLE=renato sellani and tiziana ghiglioni - poetica
DYEAR=1900
DGENRE=Jazz
TTITLE0=stella by starlight
TTITLE1=embraceable you
TTITLE2=darn that dream
TTITLE3=the nearnessof you
TTITLE4=but beatiful
TTITLE5=everything happen to me
TTITLE6=come rain or come shine
TTITLE7=the man i love
TTITLE8=my funny valentine
TTITLE9=you go to my head
TTITLE10=my foolish heart
TTITLE11=there'll never be another you
TTITLE12=we'll be togheter again
TTITLE13=bye bye blackbird
TTITLE14=that's all
TTITLE15=round midnight
EXTD=
EXTT0=
EXTT1=
EXTT2=
EXTT3=
EXTT4=
EXTT5=
EXTT6=
EXTT7=
EXTT8=
EXTT9=
EXTT10=
EXTT11=
EXTT12=
EXTT13=
EXTT14=
EXTT15=
PLAYORDER=
